<?xml version="1.0" encoding="iso-8859-1"?>
<!-- Generator: Adobe Illustrator 19.0.0, SVG Export Plug-In . SVG Version: 6.00 Build 0)  -->
<svg version="1.1" id="Layer_1" xmlns="http://www.w3.org/2000/svg" xmlns:xlink="http://www.w3.org/1999/xlink" x="0px" y="0px"
	 viewBox="0 0 512 512" style="enable-background:new 0 0 512 512;" xml:space="preserve">
<g>
	<g>
		<path d="M256.001,0c-116.77,0-211.77,94.999-211.77,211.769v110.617c0,38.831,18.104,69.787,18.104,69.787
			c68.961,106.141,179.272,118.68,179.272,118.68c3.828,0.601,8.912,1.148,14.746,1.148c4.057,0,8.478-0.265,13.091-0.958
			c0,0,43.795-11.176,63.756-20.256c3.823-1.739,5.512-6.247,3.774-10.07c-1.739-3.823-6.249-5.512-10.071-3.773
			c-18.831,8.566-38.977,14.986-59.881,19.083c-9.186,1.359-17.494,0.663-22.904-0.175c-42.514-8.47-76.595-25.459-103.295-44.656
			c8.824-15.108,13.456-32.206,13.456-49.885c0-29.266-9.05-52.839-26.898-70.063c-22.676-21.885-53.613-27.263-67.94-28.576
			v-90.903c0-66.992,33.696-126.253,85.021-161.754v63.224c0,16.385,13.33,29.716,29.716,29.716s29.715-13.33,29.715-29.716V22.232
			c16.602-4.569,34.073-7.024,52.109-7.024c18.036,0,35.505,2.455,52.109,7.024v91.006c0,16.385,13.33,29.716,29.716,29.716
			s29.715-13.33,29.715-29.716V50.014c51.325,35.501,85.021,94.762,85.021,161.754v90.908c-14.327,1.314-45.265,6.686-67.94,28.571
			c-17.848,17.224-26.898,40.798-26.898,70.063c0,17.7,4.645,34.819,13.489,49.941c-6.878,4.945-14.233,9.738-22.096,14.271
			c-3.638,2.097-4.888,6.746-2.79,10.385c2.097,3.639,6.813,4.997,10.385,2.79c71.646-44.257,93.21-86.93,93.21-86.93
			c0.729-1.229,17.848-30.553,17.848-69.384V211.769C467.769,94.999,372.769,0,256.001,0z M105.102,420.437
			c-13.005-13.32-34.639-32.381-42.668-71.206c15.934,3.348,46.219,14.638,46.219,52.08
			C108.653,407.886,107.435,414.362,105.102,420.437z M117.485,342.844c14.322,14.196,21.583,33.867,21.583,58.467
			c0,14.325-3.603,28.192-10.457,40.564c-4.161-3.37-8.112-6.775-11.857-10.184c4.659-9.418,7.106-19.801,7.106-30.379
			c0-19.275-6.29-35.131-18.695-47.13c-14.964-14.473-34.778-19.242-45.205-20.793c-0.329-3.561-0.522-15.477-0.522-15.477
			C72.182,319.193,98.575,324.098,117.485,342.844z M188.684,113.238c0,7.999-6.508,14.508-14.507,14.508
			c-7.999,0-14.508-6.508-14.508-14.508V40.487c9.238-5.216,18.932-9.716,29.016-13.402V113.238z M352.332,113.238
			c0,7.999-6.508,14.508-14.508,14.508s-14.507-6.508-14.507-14.508V27.084c10.084,3.686,19.777,8.186,29.016,13.402V113.238z
			 M406.914,420.482c-2.345-6.088-3.568-12.579-3.568-19.17c0-21.135,8.876-36.455,26.383-45.535
			c7.102-3.683,14.361-5.659,19.874-6.718C444.579,379.945,419.696,407.365,406.914,420.482z M452.048,333.29
			c-10.46,1.411-30.364,5.928-45.217,20.294c-12.403,11.997-18.692,28.054-18.692,47.728c0,10.599,2.457,21.001,7.133,30.434
			c-3.748,3.416-7.7,6.819-11.854,10.185c-6.873-12.387-10.486-26.274-10.486-40.619c0-24.6,7.261-44.271,21.583-58.467
			c18.912-18.746,45.305-23.65,58.047-24.933C452.561,317.911,452.372,329.76,452.048,333.29z"/>
	</g>
</g>
<g>
	<g>
		<path d="M256.001,255.069c-25.023,0-40.894,47.719-40.894,67.864c0,29.095,29.709,29.095,40.894,29.095
			c11.185,0,40.894,0,40.894-29.095C296.894,302.787,281.024,255.069,256.001,255.069z M256.001,336.819
			c-23.794,0-25.686-6.018-25.686-13.887c0-18.597,15.102-52.656,25.686-52.656c10.585,0,25.686,34.059,25.686,52.656
			C281.686,330.8,279.795,336.819,256.001,336.819z"/>
	</g>
</g>
<g>
	<g>
		<path d="M225.32,241.949c-3.918-10.437-11.667-18.724-21.817-23.333c-10.628-4.827-34.773-10.036-55.245-10.036
			c-19.748,0-31.948,4.818-36.264,14.321c-4.915,10.824,1.397,25.232,18.76,42.826c11.951,12.109,28.032,24.261,38.236,28.894
			c5.47,2.483,11.269,3.742,17.237,3.742c16.342,0,31.268-9.611,38.023-24.488C228.857,263.724,229.238,252.386,225.32,241.949z
			 M210.401,267.587c-8.474,19.505-31.643,14.767-35.124,13.186c-7.398-3.359-22.026-13.901-33.699-25.73
			c-13.807-13.989-16.975-23.126-15.736-25.855c0.848-1.868,6.625-5.401,22.416-5.401c17.857,0,39.731,4.485,48.957,8.676
			C210.534,238.511,216.23,254.171,210.401,267.587z"/>
	</g>
</g>
<g>
	<g>
		<path d="M400.006,222.901c-4.315-9.503-16.516-14.321-36.264-14.321c-20.473,0-44.616,5.209-55.245,10.035
			c-10.151,4.609-17.899,12.896-21.817,23.333c-3.919,10.437-3.537,21.776,1.072,31.926c6.755,14.874,21.679,24.487,38.022,24.488
			c0.003,0.002,0.003,0.002,0.005,0.002c5.966,0,11.765-1.259,17.234-3.742c10.203-4.633,26.284-16.786,38.235-28.895
			C398.609,248.133,404.921,233.725,400.006,222.901z M370.422,255.043c-11.674,11.829-26.301,22.371-33.699,25.73
			c-3.481,1.581-27.664,5.216-35.124-13.186c-5.495-13.556-0.133-29.076,13.186-35.123c9.226-4.189,31.099-8.676,48.957-8.676
			c15.791,0,21.568,3.532,22.416,5.401C387.397,231.917,384.229,241.054,370.422,255.043z"/>
	</g>
</g>
<g>
	<g>
		<path d="M283.39,359.153h-54.781c-13.72,0-24.881,11.162-24.881,24.881s11.162,24.881,24.881,24.881h54.781
			c13.72,0,24.881-11.162,24.881-24.881S297.11,359.153,283.39,359.153z M283.391,393.707H228.61c-5.334,0-9.673-4.339-9.673-9.673
			c0-5.334,4.339-9.673,9.673-9.673h54.781c5.333,0,9.673,4.339,9.673,9.673S288.725,393.707,283.391,393.707z"/>
	</g>
</g>
<g>
	<g>
		<path d="M116.943,273.458c-1.127-1.21-2.241-2.431-3.336-3.663c-2.792-3.138-7.598-3.418-10.736-0.628
			c-3.138,2.791-3.418,7.598-0.627,10.736c1.173,1.318,2.208,2.794,3.573,3.924c4.56,3.773,9.282,1.744,10.747,0.378
			C119.637,281.342,119.806,276.53,116.943,273.458z"/>
	</g>
</g>
<g>
	<g>
		<path d="M437.392,205.357c-10.388-22.516-43.582-27.328-69.599-27.399c-0.185,0-0.365,0-0.551,0
			c-28.141,0-60.501,5.884-78.875,14.363c-13.505,6.23-24.748,16.386-32.367,28.923c-7.619-12.537-18.862-22.693-32.367-28.923
			c-18.495-8.534-51.162-14.404-79.426-14.362c-26.017,0.071-59.211,4.883-69.599,27.399c-6.632,14.372-2.209,33.621,12.789,55.664
			c2.361,3.47,7.091,4.373,10.563,2.009c3.472-2.362,4.372-7.092,2.009-10.564c-11.662-17.141-15.766-31.609-11.554-40.739
			c5.325-11.542,26.196-18.481,55.831-18.562c26.248-0.079,56.314,5.259,73.013,12.963c14.975,6.909,26.455,19.89,31.498,35.614
			c1.009,3.147,3.936,5.282,7.241,5.282s6.231-2.135,7.241-5.282c5.043-15.725,16.523-28.706,31.498-35.614
			c16.698-7.705,46.714-13.068,73.013-12.963c29.634,0.081,50.506,7.02,55.831,18.562s-2.94,31.924-22.11,54.524
			c-17.007,20.049-40.547,39.432-57.247,47.137c-7.583,3.499-15.652,5.325-23.987,5.426c-2.541,0.03-4.899,1.329-6.284,3.46
			c-1.385,2.131-1.613,4.814-0.609,7.148c6.632,15.417,20.353,53.859,4.58,77.817c-9.922,15.068-30.513,22.708-61.203,22.708
			c-30.887,0-51.767-7.748-62.057-23.028c-16.179-24.026-3.442-62.309,2.786-77.653c0.935-2.305,0.684-4.922-0.673-7.008
			c-1.358-2.086-3.649-3.374-6.136-3.451c-7.917-0.247-15.611-2.07-22.87-5.419c-9.608-4.433-22.219-13.237-34.598-24.156
			c-3.149-2.778-7.955-2.476-10.732,0.673c-2.778,3.149-2.477,7.955,0.673,10.732c13.44,11.854,27.395,21.535,38.286,26.56
			c5.93,2.736,12.095,4.662,18.423,5.76c-7.912,22.889-14.77,57.215,2.226,82.456c13.289,19.735,38.412,29.742,74.67,29.742
			c36.128,0,60.993-9.943,73.905-29.553c16.586-25.19,9.021-59.501,0.559-82.491c6.681-1.06,13.177-3.038,19.411-5.914
			c18.496-8.534,44.185-29.55,62.472-51.108C429.899,256.249,447.78,227.873,437.392,205.357z"/>
	</g>
</g>
<g>
	<g>
		<path d="M420.255,134.919c-7.866-16.744-18.231-32.167-30.81-45.838c-2.843-3.091-7.654-3.291-10.744-0.447
			c-3.09,2.843-3.291,7.654-0.447,10.744c11.53,12.531,21.031,26.665,28.236,42.006c1.295,2.756,4.632,6.133,10.115,3.65
			C420.43,143.302,422.04,138.72,420.255,134.919z"/>
	</g>
</g>
<g>
	<g>
		<path d="M431.844,167.325c-0.835-3.302-1.777-6.625-2.8-9.877c-1.26-4.006-5.529-6.234-9.535-4.972
			c-4.006,1.26-6.232,5.529-4.972,9.535c0.937,2.978,1.974,5.98,2.563,9.042c1.373,7.134,8.612,5.665,9.237,5.508
			C430.407,175.531,432.874,171.397,431.844,167.325z"/>
	</g>
</g>
<g>
</g>
<g>
</g>
<g>
</g>
<g>
</g>
<g>
</g>
<g>
</g>
<g>
</g>
<g>
</g>
<g>
</g>
<g>
</g>
<g>
</g>
<g>
</g>
<g>
</g>
<g>
</g>
<g>
</g>
</svg>
